<?xml version="1.0" encoding="utf-8"?>
<!-- Generator: Adobe Illustrator 19.1.0, SVG Export Plug-In . SVG Version: 6.00 Build 0)  -->
<svg version="1.1" id="Layer_1" xmlns="http://www.w3.org/2000/svg" xmlns:xlink="http://www.w3.org/1999/xlink" x="0px" y="0px"
	 viewBox="0 0 193 33" style="enable-background:new 0 0 193 33;" xml:space="preserve">
<style type="text/css">
	.st0{fill:#434343;}
	.st1{fill:#42B1E8;}
	.st2{fill:#2DBAAC;}
	.st3{fill:#0375BF;}
	.st4{fill:#54C0B6;}
	.st5{font-family:'SourceSansPro-Bold';}
	.st6{font-size:36.1901px;}
	.st7{letter-spacing:-1;}
</style>
<g>
	<g>
		<g>
			<path class="st0" d="M41.1,4.6h6.6c7.2,0,11.8,3.6,11.8,11.7S55,28.1,48.1,28.1h-6.9V4.6z M47.4,23.8c4,0,6.7-2,6.7-7.6
				s-2.7-7.4-6.7-7.4h-1v15H47.4z"/>
			<path class="st0" d="M71.3,16.6C71.2,15,70.4,14,68.5,14c-1.5,0-3,0.6-4.8,1.6l-1.9-3.5c2.3-1.4,4.8-2.3,7.7-2.3
				c4.6,0,7.1,2.6,7.1,8.1v10.3h-4.3l-0.4-1.8h-0.1c-1.5,1.3-3.2,2.3-5.2,2.3c-3.3,0-5.3-2.4-5.3-5.4C61.2,19.4,64.2,17.3,71.3,16.6
				z M68.4,24.4c1.2,0,2-0.6,3-1.5v-3.1c-3.8,0.5-5,1.6-5,3C66.3,23.9,67.1,24.4,68.4,24.4z"/>
			<path class="st0" d="M79.7,10.2H84l0.4,3.1h0.1c1.3-2.4,3.3-3.6,5.1-3.6c1,0,1.6,0.1,2.1,0.4l-0.9,4.6c-0.7-0.2-1.2-0.3-2-0.3
				c-1.3,0-3,0.9-3.9,3.3v10.4h-5.3V10.2z"/>
			<path class="st0" d="M95.5,14.4h-2.5v-3.9l2.7-0.2l0.6-4.8h4.4v4.8h4.3v4.2h-4.3v7.2c0,2,0.9,2.9,2.3,2.9c0.6,0,1.2-0.2,1.7-0.4
				l0.8,3.9c-0.9,0.3-2.2,0.7-4,0.7c-4.4,0-6.2-2.8-6.2-6.9V14.4z"/>
		</g>
		<g>
			<g>
				<path class="st1" d="M23.5,11.4c1.9,1,9.6,4.9,9.6,4.9s-6.6-6.5-8.5-8.5c-3.4-3.4-7.8-3.4-7.8-3.4c-3.9,0-11.2,0-11.2,0L7,9.6
					c4.3,0,9.9,0,11.2,0C20.2,9.6,21.6,10.4,23.5,11.4z"/>
				<path class="st2" d="M2,9.6l6.8,6.7L7,9.6C4.2,9.6,2,9.6,2,9.6z"/>
				<path class="st3" d="M23.5,11.4c-1.9-1-3.3-1.8-5.3-1.8c-1.2,0-6.9,0-11.2,0l1.8,6.7h24.4C33.1,16.3,25.4,12.3,23.5,11.4z"/>
				<path class="st3" d="M23.5,21.2c-1.9,1-3.3,1.8-5.3,1.8c-1.2,0-6.9,0-11.2,0l-1.4,5.1c0,0,7.3,0,11.2,0c0,0,4.4,0.1,7.8-3.4
					c1.9-1.9,8.5-8.5,8.5-8.5S25.4,20.2,23.5,21.2z"/>
				<path class="st4" d="M2,23c0,0,2.2,0,5,0l1.8-6.7L2,23z"/>
				<path class="st2" d="M23.5,21.2c1.9-1,9.6-4.9,9.6-4.9H8.8L7,23c4.3,0,9.9,0,11.2,0C20.2,23,21.6,22.1,23.5,21.2z"/>
			</g>
		</g>
	</g>
	<text transform="matrix(1 0 0 1 38.1273 28.0561)"><tspan x="0" y="0" class="st0 st5 st6 st7">Da</tspan><tspan x="39.4" y="0" class="st0 st5 st6">rt4</tspan><tspan x="88.9" y="0" class="st0 st5 st6 st7">Web</tspan></text>
</g>
</svg>
